PathFileType	4	(X/Y/Z)	s04c0303.trc
DataRate	CameraRate	NumFrames	NumMarkers	Units	OrigDataRate	OrigDataStartFrame	OrigNumFrames
200	200	4	50	mm	200	1250	2000
Frame#	Time	racr			lacr			c7			jug			rlel			rdr			llel			ldr			s2			lic			ric			lasi			rasi			rpsi			lpsi			rgt			lgt			rth1			rth2			rth3			rth4			rlfc			rmfc			rsh1			rsh2			rsh3			rsh4			rlmal			rmmal			rcal			rtoe			rmt5			lth1			lth2			lth4			lth3			llfc			lmfc			lsh1			lsh2			lsh3			lsh4			llmal			lmmal			lcal			ltoe			lmt5			SBIKE			LBIKE			RBIKE			
		X1	Y1	Z1	X2	Y2	Z2	X3	Y3	Z3	X4	Y4	Z4	X5	Y5	Z5	X6	Y6	Z6	X7	Y7	Z7	X8	Y8	Z8	X9	Y9	Z9	X10	Y10	Z10	X11	Y11	Z11	X12	Y12	Z12	X13	Y13	Z13	X14	Y14	Z14	X15	Y15	Z15	X16	Y16	Z16	X17	Y17	Z17	X18	Y18	Z18	X19	Y19	Z19	X20	Y20	Z20	X21	Y21	Z21	X22	Y22	Z22	X23	Y23	Z23	X24	Y24	Z24	X25	Y25	Z25	X26	Y26	Z26	X27	Y27	Z27	X28	Y28	Z28	X29	Y29	Z29	X30	Y30	Z30	X31	Y31	Z31	X32	Y32	Z32	X33	Y33	Z33	X34	Y34	Z34	X35	Y35	Z35	X36	Y36	Z36	X37	Y37	Z37	X38	Y38	Z38	X39	Y39	Z39	X40	Y40	Z40	X41	Y41	Z41	X42	Y42	Z42	X43	Y43	Z43	X44	Y44	Z44	X45	Y45	Z45	X46	Y46	Z46	X47	Y47	Z47	X48	Y48	Z48	X49	Y49	Z49	X50	Y50	Z50	
1250	6.2500	862.587888	1312.411454	-169.968579	873.106903	1235.648266	-473.965329	883.434708	1351.446862	-327.612469	808.108566	1212.565988	-310.404160	647.016733	1154.140210	26.450868	707.073056	911.112135	-101.379239	613.391156	1137.378430	-608.469987	692.696628	917.599017	-490.984833	281.216847	1293.227870	-244.758332	389.040740	1262.811170	-429.061175	459.660732	1251.016845	-116.632452	423.417110	1209.497170	-396.097157	477.202799	1187.564340	-162.712865	334.215717	1322.791814	-214.363842	315.526679	1332.418380	-284.772331	398.656658	1202.090454	-89.699845	333.693809	1194.623385	-447.969259	437.911023	1038.358435	-85.773682	470.593289	956.559281	-95.290814	461.688057	871.487609	-96.036189	500.161733	962.493354	-117.836026	450.598614	723.075786	-113.485972	418.648867	713.147788	-224.568249	348.086451	642.871835	-84.314514	297.190174	568.428071	-99.925739	218.002556	534.297122	-104.811964	318.986148	548.226394	-124.090521	108.283845	418.706030	-110.002521	130.825525	413.830718	-195.605747	48.023339	454.820256	-150.182693	187.720270	181.806777	-167.190691	137.325876	227.292152	-108.526584	376.655571	1113.639030	-461.596433	445.880824	1063.340607	-476.106033	474.486937	1085.327124	-469.643133	480.905189	981.853503	-483.942762	566.257922	838.741834	-477.176228	605.396658	808.493119	-372.350260	514.849809	728.202832	-495.788198	482.614289	650.852770	-471.649116	413.346455	595.699905	-463.466320	507.860706	637.997095	-443.586345	319.680419	486.132626	-450.887584	323.510041	498.018390	-365.238141	237.712593	492.752761	-407.529079	515.721574	377.199602	-421.319843	434.670292	366.440925	-480.308691	-183.979467	929.425803	-288.124823	-17.544749	79.139463	-485.465232	-17.521424	79.657796	-84.749975	
1251	6.2550	861.660546	1314.856078	-168.567302	873.826440	1234.536194	-472.324584	883.708693	1351.852751	-326.024669	807.781292	1213.535468	-307.716550	648.005575	1153.816129	26.984147	705.720109	910.717320	-101.594164	613.722197	1137.547441	-606.706362	693.184762	917.365827	-490.211828	280.876450	1292.882866	-247.629037	389.997769	1259.966550	-430.857234	458.550179	1252.043806	-118.834422	424.172564	1206.336415	-396.799820	476.783750	1188.530088	-163.331487	333.475741	1322.381448	-217.040157	315.388492	1331.400797	-288.010754	398.335198	1203.010941	-92.066327	333.341591	1190.873782	-449.103450	441.017224	1039.913006	-87.856765	474.755797	958.622661	-96.944027	466.890900	873.595235	-97.238750	504.527244	965.134217	-118.729388	456.741178	725.255974	-113.742176	426.163808	715.085154	-225.380904	352.722521	647.101084	-85.414826	299.698815	573.837097	-101.772590	220.306878	541.488647	-106.241832	321.808134	553.014290	-124.970393	107.813019	428.860533	-111.761958	130.642729	423.349769	-197.152058	48.321007	465.769037	-152.454177	183.488470	190.218448	-166.863373	133.618367	237.139249	-108.785509	375.578984	1109.453868	-462.857808	443.708264	1057.581314	-476.296614	472.937046	1079.413724	-470.874901	477.779681	975.752348	-483.727750	559.645100	830.176377	-476.623565	599.128474	800.673921	-372.511447	509.025254	718.443788	-495.617643	478.916519	640.470589	-471.011675	411.336948	583.452437	-462.435886	504.712218	628.280456	-443.060601	320.197776	473.030272	-450.373277	323.942403	485.220460	-364.517817	238.125399	478.423102	-406.880241	518.355058	368.547097	-421.354246	437.426751	356.302909	-480.269295	-183.845867	929.385974	-288.014599	-17.539434	79.103921	-485.461029	-17.499749	79.624393	-84.749583	
1252	6.2600	860.545315	1317.651528	-166.832553	874.367676	1233.377363	-470.648262	883.869545	1351.963235	-323.281971	806.836530	1214.543093	-303.599385	648.933416	1153.456144	27.534436	705.130143	910.332914	-101.567579	614.329445	1137.746963	-605.150595	693.361599	917.102799	-489.546398	280.454233	1292.085281	-250.513655	391.040145	1256.840844	-432.659216	457.323048	1253.492076	-120.311585	425.162117	1203.078473	-397.431760	476.257973	1189.592681	-164.154466	332.577724	1321.803410	-219.009001	315.699762	1329.295441	-292.683587	398.208708	1204.357923	-93.730708	333.171285	1186.723444	-450.154903	443.413633	1041.378817	-89.381776	478.020577	960.475705	-98.692640	471.619101	875.398866	-98.155647	507.412254	967.285705	-120.055328	462.520935	727.221356	-114.103763	432.956885	717.059552	-226.172195	357.038900	651.328244	-86.430512	302.507271	579.161781	-102.798031	222.430264	548.686350	-107.670693	324.382029	557.710276	-125.763980	107.382610	439.112906	-113.284526	131.557360	432.592981	-198.801340	48.608557	476.604020	-154.675812	180.168961	199.303613	-166.061345	130.513926	247.220858	-108.764864	374.611331	1105.000265	-464.056593	442.046339	1051.955933	-476.775751	471.432052	1073.419226	-472.155032	474.666472	969.552795	-484.009521	553.625086	822.007632	-476.207404	593.380355	793.050427	-372.359542	503.850487	710.145834	-495.909301	475.557719	631.567701	-470.772324	409.389926	573.128173	-461.857479	502.077598	619.524927	-443.478134	320.591849	460.636814	-449.883624	323.955622	473.026344	-363.989700	238.476322	464.852470	-406.376172	520.510613	359.311563	-421.279846	439.703715	346.000665	-480.084187	-183.765035	929.339363	-287.859844	-17.515397	79.077614	-485.451512	-17.498442	79.536942	-84.743025	
1253	6.2650	859.699013	1320.007888	-164.962852	874.782282	1232.327449	-469.050875	884.205031	1352.346303	-321.774831	806.271894	1215.701408	-300.930332	649.898107	1153.108480	28.165236	704.999577	910.030590	-101.275707	614.899181	1137.578908	-603.398168	693.544524	916.800677	-488.851731	279.888715	1291.008102	-253.501369	392.119247	1253.418722	-434.724936	456.030690	1254.654202	-121.834710	426.285522	1199.758692	-398.366637	475.860747	1190.188211	-164.870772	331.594862	1321.328582	-221.595753	312.279605	1329.346549	-291.991974	398.235121	1205.474044	-95.216540	333.090172	1182.385622	-451.250177	445.416143	1042.678873	-90.571823	480.842944	962.132137	-99.301532	475.670766	877.065633	-98.767601	510.201782	968.689581	-122.332338	467.942446	729.161694	-114.457790	439.049948	719.047720	-226.789365	361.046554	655.680587	-87.468728	306.474141	585.233332	-102.503600	224.443946	555.997753	-108.910752	326.717640	562.585294	-126.439138	106.896435	449.516837	-114.747940	131.695227	442.108792	-200.009727	48.856737	487.268725	-157.106490	177.745352	208.921409	-165.249748	127.967374	257.554404	-108.713847	373.773112	1100.386834	-465.276321	440.279252	1046.284946	-478.261551	470.330799	1067.185262	-472.765104	471.870282	963.328359	-484.267323	548.267278	814.759918	-476.092590	588.141891	785.940009	-372.044275	499.300750	702.717362	-495.553437	472.549855	623.442227	-470.766711	407.350773	563.869604	-461.818607	499.587290	611.616232	-444.096253	320.937159	448.756181	-449.517379	324.510099	460.913034	-363.254484	238.954748	451.674517	-405.844378	522.076872	349.587442	-421.049819	441.456401	335.549285	-479.856077	-183.731249	929.299585	-287.727777	-17.494992	79.069447	-485.419601	-17.490782	79.487193	-84.705668	
